<svg version="1.2" baseProfile="tiny-ps" xmlns="http://www.w3.org/2000/svg" viewBox="0 0 1404 479" width="1404" height="479">
	<title>landing-svg</title>
	<style>
		tspan { white-space:pre }
		.s0 { fill: #ffffff } 
		.s1 { fill: none;stroke: #1c314a;stroke-linecap:round;stroke-linejoin:round } 
		.s2 { fill: none;stroke: #ffffff;stroke-linecap:round;stroke-linejoin:round } 
		.s3 { fill: #13263c } 
		.s4 { fill: #1c314a } 
		.s5 { fill: #1f4066 } 
		.s6 { fill: #2b527f } 
	</style>
	<path id="Layer" fill-rule="evenodd" class="s0" d="m1137.32 154.59l-151.02 0.58c-12.23 0.05-17.56-15.76-7.58-22.83c0.14-0.1 0.28-0.2 0.42-0.29c14.21-9.85 32.91-9.03 32.91-9.03c0 0 2.47-52.99 52.78-53.18c24.88-0.1 45.14 42.35 45.14 42.35c0 0 33.84-0.13 39.54 26.56c1.72 8.09-3.92 15.82-12.19 15.85z" />
	<path id="Layer" class="s1" d="m1137.32 154.59l-151.02 0.58c-12.23 0.05-17.56-15.76-7.58-22.83c0.14-0.1 0.28-0.2 0.42-0.29c14.21-9.85 32.91-9.03 32.91-9.03c0 0 2.47-52.99 52.78-53.18c24.88-0.1 45.14 42.35 45.14 42.35c0 0 33.84-0.13 39.54 26.56c1.72 8.09-3.92 15.82-12.19 15.85z" />
	<path id="Layer" class="s1" d="m146.15 396.55l-119.06 0.45c-9.64 0.04-13.84-12.38-5.97-17.92c0.11-0.08 0.22-0.15 0.33-0.23c11.2-7.73 25.95-7.09 25.95-7.09c0 0 1.95-41.6 41.61-41.76c19.61-0.07 35.58 33.25 35.58 33.25c0 0 26.67-0.1 31.17 20.86c1.36 6.35-3.09 12.42-9.61 12.44z" />
	<path id="Layer" fill-rule="evenodd" class="s0" d="m87.42 217.14c7.66-35.87 53.13-35.7 53.13-35.7c0 0 12.85-56.91 60.66-56.91c67.61 0 70.92 71.47 70.92 71.47c0 0 25.13-1.1 44.23 12.14c0.19 0.13 0.38 0.26 0.57 0.4c13.41 9.49 6.25 30.74-10.19 30.67l-202.95-0.78c-11.11-0.04-18.7-10.43-16.38-21.3z" />
	<path id="Layer" class="s1" d="m87.42 217.14c7.66-35.87 53.13-35.7 53.13-35.7c0 0 12.85-56.91 60.66-56.91c67.61 0 70.92 71.47 70.92 71.47c0 0 25.13-1.1 44.23 12.14c0.19 0.13 0.38 0.26 0.57 0.4c13.41 9.49 6.25 30.74-10.19 30.67l-202.95-0.78c-11.11-0.04-18.7-10.43-16.38-21.3z" />
	<path id="Layer" fill-rule="evenodd" class="s0" d="m696.3 69.61c3.77-14.38 14.26-40.51 40.84-40.61c29.4-0.11 31.07 30.84 31.07 30.84c0 0 10.92-0.56 19.27 5.13c0.08 0.06 0.17 0.11 0.25 0.17c5.86 4.08 2.82 13.34-4.33 13.37l-79.91 0.31c-4.83 0.02-8.42-4.53-7.19-9.21z" />
	<path id="Layer" class="s1" d="m696.3 69.61c3.77-14.38 14.26-40.51 40.84-40.61c29.4-0.11 31.07 30.84 31.07 30.84c0 0 10.92-0.56 19.27 5.13c0.08 0.06 0.17 0.11 0.25 0.17c5.86 4.08 2.82 13.34-4.33 13.37l-79.91 0.31c-4.83 0.02-8.42-4.53-7.19-9.21z" />
	<path id="Layer" fill-rule="evenodd" class="s0" d="m381.67 308.14c9.43-27.18 40.96-22.81 40.96-22.81c0 0 1.22-9.82 10.68-18.43c9.46-8.61 22.43-8.56 22.43-8.56c0 0 6.87-50.67 64.64-50.46c57.77 0.21 66.22 54.08 66.22 54.08c0 0 12.58-0.74 21.98 7.38c9.4 8.12 9.37 17.89 9.37 17.89c0 0 15.44-2.86 30.15 3.32c16.63 6.99 21.63 21.24 21.63 21.24c0 0 17.01-3 25.58 4.58c8.36 7.4 9.47 28.56-16.23 28.46l-273.68-1c-18-0.07-29.35-19.49-23.74-35.68z" />
	<path id="Layer" class="s1" d="m381.67 308.14c9.43-27.18 40.96-22.81 40.96-22.81c0 0 1.22-9.82 10.68-18.43c9.46-8.61 22.43-8.56 22.43-8.56c0 0 6.87-50.67 64.64-50.46c57.77 0.21 66.22 54.08 66.22 54.08c0 0 12.58-0.74 21.98 7.38c9.4 8.12 9.37 17.89 9.37 17.89c0 0 15.44-2.86 30.15 3.32c16.63 6.99 21.63 21.24 21.63 21.24c0 0 17.01-3 25.58 4.58c8.36 7.4 9.47 28.56-16.23 28.46l-273.68-1c-18-0.07-29.35-19.49-23.74-35.68z" />
	<path id="Layer" fill-rule="evenodd" class="s0" d="m1232.86 294.37c3.21-15 22.22-14.92 22.22-14.92c0 0 11.38-23.84 25.36-23.79c28.26 0.11 29.65 29.88 29.65 29.88c0 0 10.5-0.46 18.49 5.07c0.08 0.06 0.16 0.11 0.24 0.17c5.6 3.97 2.61 12.85-4.26 12.82l-84.85-0.33c-4.64-0.02-7.82-4.36-6.85-8.91z" />
	<path id="Layer" class="s1" d="m1232.86 294.37c3.21-15 22.22-14.92 22.22-14.92c0 0 11.38-23.84 25.36-23.79c28.26 0.11 29.65 29.88 29.65 29.88c0 0 10.5-0.46 18.49 5.07c0.08 0.06 0.16 0.11 0.24 0.17c5.6 3.97 2.61 12.85-4.26 12.82l-84.85-0.33c-4.64-0.02-7.82-4.36-6.85-8.91z" />
	<path id="Layer" fill-rule="evenodd" class="s0" d="m1.17 39.71c3.2-15 22.21-14.92 22.21-14.92c0 0 11.38-23.84 25.36-23.79c28.26 0.11 29.65 29.88 29.65 29.88c0 0 10.51-0.46 18.49 5.07c0.08 0.05 0.16 0.11 0.24 0.17c5.61 3.97 2.61 12.85-4.26 12.82l-84.84-0.33c-4.65-0.02-7.82-4.36-6.85-8.9z" />
	<path id="Layer" class="s1" d="m1.17 39.71c3.2-15 22.21-14.92 22.21-14.92c0 0 11.38-23.84 25.36-23.79c28.26 0.11 29.65 29.88 29.65 29.88c0 0 10.51-0.46 18.49 5.07c0.08 0.05 0.16 0.11 0.24 0.17c5.61 3.97 2.61 12.85-4.26 12.82l-84.84-0.33c-4.65-0.02-7.82-4.36-6.85-8.9z" />
	<path id="Layer" fill-rule="evenodd" class="s0" d="m665.65 478h-25.6c-10 0-18.11-8.21-18.11-18.34v-26.88l-4.38-14.61c27.12 0.12 65.18 0.6 70.58 0l-4.38 14.61v26.88c0 10.13-8.11 18.34-18.11 18.34z" />
	<path id="Layer" class="s1" d="m665.65 478h-25.6c-10 0-18.11-8.21-18.11-18.34v-26.88l-4.38-14.61c27.12 0.12 65.18 0.6 70.58 0l-4.38 14.61v26.88c0 10.13-8.11 18.34-18.11 18.34z" />
	<path id="Layer" class="s2" d="m652.85 379.98v36.96" />
	<path id="Layer" fill-rule="evenodd" class="s3" d="m614.81 381.39l8.25 38.5l-8.25-38.5z" />
	<path id="Layer" class="s2" d="m614.81 381.39l8.25 38.5" />
	<path id="Layer" fill-rule="evenodd" class="s3" d="m693.1 381.39l-9.35 38.5l9.35-38.5z" />
	<path id="Layer" class="s2" d="m693.1 381.39l-9.35 38.5" />
	<path id="Layer" fill-rule="evenodd" class="s3" d="m673.84 381.15l-6.75 38.01l6.75-38.01z" />
	<path id="Layer" class="s2" d="m673.84 381.15l-6.75 38.01" />
	<path id="Layer" fill-rule="evenodd" class="s3" d="m632.44 381.15l6.75 38.01l-6.75-38.01z" />
	<path id="Layer" class="s2" d="m632.44 381.15l6.75 38.01" />
	<path id="Layer" class="s1" d="m621.69 433.16h62.01" />
	<path id="Layer" fill-rule="evenodd" class="s4" d="m699.21 381.45h-89.73c0 0-107.61-123.71-107.61-193.16c0-85.26 68.26-154.38 152.47-154.38c84.21 0 152.48 69.12 152.48 154.38c0 69.45-107.61 193.16-107.61 193.16z" />
	<path id="Layer" class="s1" d="m699.21 381.45h-89.73c0 0-107.61-123.71-107.61-193.16c0-85.26 68.26-154.38 152.47-154.38c84.21 0 152.48 69.12 152.48 154.38c0 69.45-107.61 193.16-107.61 193.16z" />
	<path id="Layer" fill-rule="evenodd" class="s5" d="m682.94 381.45h-57.21c0 0-68.61-123.71-68.61-193.16c0-85.26 43.52-154.38 97.21-154.38c53.69 0 97.21 69.12 97.21 154.38c0 69.45-68.61 193.16-68.61 193.16z" />
	<path id="Layer" class="s1" d="m682.94 381.45h-57.21c0 0-68.61-123.71-68.61-193.16c0-85.26 43.52-154.38 97.21-154.38c53.69 0 97.21 69.12 97.21 154.38c0 69.45-68.61 193.16-68.61 193.16z" />
	<path id="Layer" fill-rule="evenodd" class="s6" d="m664.2 381.45h-19.73c0 0-23.65-123.71-23.65-193.16c0-85.26 15.01-154.38 33.52-154.38c18.51 0 33.52 69.12 33.52 154.38c0 69.45-23.65 193.16-23.65 193.16z" />
	<path id="Layer" class="s1" d="m664.2 381.45h-19.73c0 0-23.65-123.71-23.65-193.16c0-85.26 15.01-154.38 33.52-154.38c18.51 0 33.52 69.12 33.52 154.38c0 69.45-23.65 193.16-23.65 193.16z" />
	<path id="Layer" fill-rule="evenodd" class="s0" d="m708.83 302.86c-42.85-0.16-22.54-68.03 31.68-51.59c3.37-94.33 157.41-162.77 220.51-35.28c18.03-14.16 58.3 12.87 49.27 36.32c19.96 1.78 35.67 4.15 47.88 7.25c28.19 7.17 22.46 44.42-6.63 44.04l-342.71-0.74z" />
	<path id="Layer" class="s1" d="m708.83 302.86c-42.85-0.16-22.54-68.03 31.68-51.59c3.37-94.33 157.41-162.77 220.51-35.28c18.03-14.16 58.3 12.87 49.27 36.32c19.96 1.78 35.67 4.15 47.88 7.25c28.19 7.17 22.46 44.42-6.63 44.04l-342.71-0.74z" />
	<path id="Layer" class="s1" d="m867.35 321.18h107.48" />
	<path id="Layer" fill-rule="evenodd" class="s3" d="m834.33 321.18h-21.04c0.14-1.38 0.27-2.75 0.41-4.13" />
	<path id="Layer" class="s1" d="m834.33 321.18h-21.04c0.14-1.38 0.27-2.75 0.41-4.13" />
	<path id="Layer" class="s1" d="m485.61 364.51h30.95" />
	<path id="Layer" class="s1" d="m231.81 261.34h24.76" />
	<path id="Layer" class="s1" d="m39 413h24.76" />
	<path id="Layer" fill-rule="evenodd" class="s0" d="m1257.26 83.14c4.82-22.52 33.41-22.41 33.41-22.41c0 0 8.09-35.73 38.15-35.73c42.52 0 44.6 44.87 44.6 44.87c0 0 15.81-0.69 27.81 7.62c0.12 0.08 0.24 0.17 0.36 0.25c8.43 5.96 3.93 19.3-6.4 19.26l-127.63-0.49c-6.98-0.03-11.76-6.55-10.3-13.37z" />
	<path id="Layer" class="s1" d="m1257.26 83.14c4.82-22.52 33.41-22.41 33.41-22.41c0 0 8.09-35.73 38.15-35.73c42.52 0 44.6 44.87 44.6 44.87c0 0 15.81-0.69 27.81 7.62c0.12 0.08 0.24 0.17 0.36 0.25c8.43 5.96 3.93 19.3-6.4 19.26l-127.63-0.49c-6.98-0.03-11.76-6.55-10.3-13.37z" />
	<path id="Layer" class="s1" d="m1348.03 111.32h15.56" />
	<path id="Layer" class="s1" d="m398.95 232.45h31.23" />
	<path id="Layer" class="s1" d="m306.09 314.99h-14.59" />
	<path id="Layer" class="s1" d="m1081.56 174.24h45.58" />
	<path id="Layer" class="s1" d="m824.01 112.77h22.79" />
	<path id="Layer" class="s1" d="m927.19 341.81h18.68" />
</svg>